<svg{{ with .size }} height="{{ . }}" {{ end }} style="enable-background:new 0 0 67 67;" version="1.1" viewBox="0 0 67 67" width="{{ .size }}" xml:space="preserve" xmlns="http://www.w3.org/2000/svg" xmlns:xlink="http://www.w3.org/1999/xlink"><path transform="scale(0.1)" d="M 330 40 C 164.32 40 30 174.31 30 340 C 30 505.69 164.32 640 330 640 C 495.68 640 630 505.69 630 340 C 630 174.31 495.68 40 330 40 z M 258.32031 142.2207 C 267.93031 142.2107 277.54039 142.2207 287.15039 142.2207 C 294.04039 142.2307 299.50977 147.72086 299.50977 154.63086 L 299.50977 183.5293 C 299.50977 184.89301 299.26528 186.21041 298.83594 187.44922 L 356.6875 187.44922 C 356.25911 186.12889 355.99997 184.69227 355.99023 183.30078 C 355.92023 173.75078 355.95094 164.20039 355.96094 154.65039 C 355.96094 147.74039 361.44031 142.2307 368.32031 142.2207 C 377.93031 142.2107 387.54039 142.2207 397.15039 142.2207 C 404.04039 142.2307 409.50977 147.72086 409.50977 154.63086 L 409.50977 183.5293 C 409.50977 184.89301 409.26528 186.21041 408.83594 187.44922 L 452.40039 187.44922 C 452.97039 187.54922 453.51961 187.68 454.09961 187.75 C 467.93961 189.65 479.22039 200.25969 481.90039 213.92969 C 482.15039 215.25969 482.34078 216.60945 482.55078 217.93945 L 482.55078 462.06055 C 482.33078 463.42055 482.13086 464.78039 481.88086 466.15039 C 479.44086 478.68039 469.26078 489.0707 456.80078 491.7207 C 455.23078 492.0607 453.64078 492.29078 452.05078 492.55078 L 207.96094 492.55078 C 207.31094 492.46078 206.64977 492.33 206.00977 492.25 C 192.57977 490.52 181.30055 480.27078 178.31055 467.05078 C 177.96055 465.51078 177.74094 463.94039 177.46094 462.40039 L 177.46094 217.61914 C 177.55094 217.04914 177.67 216.48016 177.75 215.91016 C 179.68 202.21016 189.67922 191.33 203.19922 188.25 C 204.64922 187.92 206.13938 187.71922 207.60938 187.44922 L 246.6875 187.44922 C 246.25911 186.12889 245.99997 184.69227 245.99023 183.30078 C 245.92023 173.75078 245.95094 164.20039 245.96094 154.65039 C 245.96094 147.74039 251.44031 142.2307 258.32031 142.2207 z M 418.32031 212.2207 C 411.44031 212.2307 405.96094 217.74039 405.96094 224.65039 C 405.95094 234.20039 405.92023 243.75078 405.99023 253.30078 C 406.00023 254.73078 406.2707 256.21055 406.7207 257.56055 C 408.4507 262.64055 413.11055 265.75906 418.81055 265.78906 L 432.71094 265.7793 L 432.71094 265.7207 C 437.73094 265.7207 442.75906 265.81922 447.78906 265.69922 C 454.24906 265.52922 459.50977 259.9993 459.50977 253.5293 L 459.50977 224.63086 C 459.50977 217.72086 454.04039 212.2307 447.15039 212.2207 C 437.54039 212.2207 427.93031 212.2107 418.32031 212.2207 z M 208.32031 282.2207 C 201.44031 282.2307 195.96094 287.74039 195.96094 294.65039 C 195.95094 304.20039 195.92023 313.75078 195.99023 323.30078 C 196.00023 324.73078 196.2707 326.21055 196.7207 327.56055 C 198.4507 332.64055 203.11055 335.75906 208.81055 335.78906 L 222.71094 335.7793 L 222.71094 335.7207 C 227.73094 335.7207 232.75906 335.81922 237.78906 335.69922 C 244.24906 335.52922 249.50977 329.9993 249.50977 323.5293 L 249.50977 294.63086 C 249.50977 287.72086 244.04039 282.2307 237.15039 282.2207 C 227.54039 282.2207 217.93031 282.2107 208.32031 282.2207 z M 278.32031 282.2207 C 271.44031 282.2307 265.96094 287.74039 265.96094 294.65039 C 265.95094 304.20039 265.92023 313.75078 265.99023 323.30078 C 266.00023 324.73078 266.2707 326.21055 266.7207 327.56055 C 268.4507 332.64055 273.11055 335.75906 278.81055 335.78906 L 292.71094 335.7793 L 292.71094 335.7207 C 297.73094 335.7207 302.75906 335.81922 307.78906 335.69922 C 314.24906 335.52922 319.50977 329.9993 319.50977 323.5293 L 319.50977 294.63086 C 319.50977 287.72086 314.04039 282.2307 307.15039 282.2207 C 297.54039 282.2207 287.93031 282.2107 278.32031 282.2207 z M 348.32031 282.2207 C 341.44031 282.2307 335.96094 287.74039 335.96094 294.65039 C 335.95094 304.20039 335.92023 313.75078 335.99023 323.30078 C 336.00023 324.73078 336.2707 326.21055 336.7207 327.56055 C 338.4507 332.64055 343.11055 335.75906 348.81055 335.78906 L 362.71094 335.7793 L 362.71094 335.7207 C 367.73094 335.7207 372.75906 335.81922 377.78906 335.69922 C 384.24906 335.52922 389.50977 329.9993 389.50977 323.5293 L 389.50977 294.63086 C 389.50977 287.72086 384.04039 282.2307 377.15039 282.2207 C 367.54039 282.2207 357.93031 282.2107 348.32031 282.2207 z M 418.32031 282.2207 C 411.44031 282.2307 405.96094 287.74039 405.96094 294.65039 C 405.95094 304.20039 405.92023 313.75078 405.99023 323.30078 C 406.00023 324.73078 406.2707 326.21055 406.7207 327.56055 C 408.4507 332.64055 413.11055 335.75906 418.81055 335.78906 L 432.71094 335.7793 L 432.71094 335.7207 C 437.73094 335.7207 442.75906 335.81922 447.78906 335.69922 C 454.24906 335.52922 459.50977 329.9993 459.50977 323.5293 L 459.50977 294.63086 C 459.50977 287.72086 454.04039 282.2307 447.15039 282.2207 C 437.54039 282.2207 427.93031 282.2107 418.32031 282.2207 z M 208.32031 352.2207 C 201.44031 352.2307 195.96094 357.74039 195.96094 364.65039 C 195.95094 374.20039 195.92023 383.75078 195.99023 393.30078 C 196.00023 394.73078 196.2707 396.21055 196.7207 397.56055 C 198.4507 402.64055 203.11055 405.75906 208.81055 405.78906 L 222.71094 405.7793 L 222.71094 405.7207 C 227.73094 405.7207 232.75906 405.81922 237.78906 405.69922 C 244.24906 405.52922 249.50977 399.9993 249.50977 393.5293 L 249.50977 364.63086 C 249.50977 357.72086 244.04039 352.2307 237.15039 352.2207 C 227.54039 352.2207 217.93031 352.2107 208.32031 352.2207 z M 278.32031 352.2207 C 271.44031 352.2307 265.96094 357.74039 265.96094 364.65039 C 265.95094 374.20039 265.92023 383.75078 265.99023 393.30078 C 266.00023 394.73078 266.2707 396.21055 266.7207 397.56055 C 268.4507 402.64055 273.11055 405.75906 278.81055 405.78906 L 292.71094 405.7793 L 292.71094 405.7207 C 297.73094 405.7207 302.75906 405.81922 307.78906 405.69922 C 314.24906 405.52922 319.50977 399.9993 319.50977 393.5293 L 319.50977 364.63086 C 319.50977 357.72086 314.04039 352.2307 307.15039 352.2207 C 297.54039 352.2207 287.93031 352.2107 278.32031 352.2207 z M 348.32031 352.2207 C 341.44031 352.2307 335.96094 357.74039 335.96094 364.65039 C 335.95094 374.20039 335.92023 383.75078 335.99023 393.30078 C 336.00023 394.73078 336.2707 396.21055 336.7207 397.56055 C 338.4507 402.64055 343.11055 405.75906 348.81055 405.78906 L 362.71094 405.7793 L 362.71094 405.7207 C 367.73094 405.7207 372.75906 405.81922 377.78906 405.69922 C 384.24906 405.52922 389.50977 399.9993 389.50977 393.5293 L 389.50977 364.63086 C 389.50977 357.72086 384.04039 352.2307 377.15039 352.2207 C 367.54039 352.2207 357.93031 352.2107 348.32031 352.2207 z M 418.32031 352.2207 C 411.44031 352.2307 405.96094 357.74039 405.96094 364.65039 C 405.95094 374.20039 405.92023 383.75078 405.99023 393.30078 C 406.00023 394.73078 406.2707 396.21055 406.7207 397.56055 C 408.4507 402.64055 413.11055 405.75906 418.81055 405.78906 L 432.71094 405.7793 L 432.71094 405.7207 C 437.73094 405.7207 442.75906 405.81922 447.78906 405.69922 C 454.24906 405.52922 459.50977 399.9993 459.50977 393.5293 L 459.50977 364.63086 C 459.50977 357.72086 454.04039 352.2307 447.15039 352.2207 C 437.54039 352.2207 427.93031 352.2107 418.32031 352.2207 z M 208.32031 422.2207 C 201.44031 422.2307 195.96094 427.74039 195.96094 434.65039 C 195.95094 444.20039 195.92023 453.75078 195.99023 463.30078 C 196.00023 464.73078 196.2707 466.21055 196.7207 467.56055 C 198.4507 472.64055 203.11055 475.75906 208.81055 475.78906 L 222.71094 475.7793 L 222.71094 475.7207 C 227.73094 475.7207 232.75906 475.81922 237.78906 475.69922 C 244.24906 475.52922 249.50977 469.9993 249.50977 463.5293 L 249.50977 434.63086 C 249.50977 427.72086 244.04039 422.2307 237.15039 422.2207 C 227.54039 422.2207 217.93031 422.2107 208.32031 422.2207 z M 278.32031 422.2207 C 271.44031 422.2307 265.96094 427.74039 265.96094 434.65039 C 265.95094 444.20039 265.92023 453.75078 265.99023 463.30078 C 266.00023 464.73078 266.2707 466.21055 266.7207 467.56055 C 268.4507 472.64055 273.11055 475.75906 278.81055 475.78906 L 292.71094 475.7793 L 292.71094 475.7207 C 297.73094 475.7207 302.75906 475.81922 307.78906 475.69922 C 314.24906 475.52922 319.50977 469.9993 319.50977 463.5293 L 319.50977 434.63086 C 319.50977 427.72086 314.04039 422.2307 307.15039 422.2207 C 297.54039 422.2207 287.93031 422.2107 278.32031 422.2207 z M 348.32031 422.2207 C 341.44031 422.2307 335.96094 427.74039 335.96094 434.65039 C 335.95094 444.20039 335.92023 453.75078 335.99023 463.30078 C 336.00023 464.73078 336.2707 466.21055 336.7207 467.56055 C 338.4507 472.64055 343.11055 475.75906 348.81055 475.78906 L 362.71094 475.7793 L 362.71094 475.7207 C 367.73094 475.7207 372.75906 475.81922 377.78906 475.69922 C 384.24906 475.52922 389.50977 469.9993 389.50977 463.5293 L 389.50977 434.63086 C 389.50977 427.72086 384.04039 422.2307 377.15039 422.2207 C 367.54039 422.2207 357.93031 422.2107 348.32031 422.2207 z M 418.32031 422.2207 C 411.44031 422.2307 405.96094 427.74039 405.96094 434.65039 C 405.95094 444.20039 405.92023 453.75078 405.99023 463.30078 C 406.00023 464.73078 406.2707 466.21055 406.7207 467.56055 C 408.4507 472.64055 413.11055 475.75906 418.81055 475.78906 L 432.71094 475.7793 L 432.71094 475.7207 C 437.73094 475.7207 442.75906 475.81922 447.78906 475.69922 C 454.24906 475.52922 459.50977 469.9993 459.50977 463.5293 L 459.50977 434.63086 C 459.50977 427.72086 454.04039 422.2307 447.15039 422.2207 C 437.54039 422.2207 427.93031 422.2107 418.32031 422.2207 z" style="fill-rule:evenodd;clip-rule:evenodd;fill:{{ .fill }};"/></svg>
